<?xml version="1.0" encoding="utf-8"?>
<svg version="1.1" id="Calque_1"
  xmlns="http://www.w3.org/2000/svg"
  xmlns:xlink="http://www.w3.org/1999/xlink" x="0px" y="0px" viewBox="0 0 50 50" style="enable-background:new 0 0 50 50;" xml:space="preserve">
  <style type="text/css">
	.st0{fill:#970502;}
	.st1{fill:#FEE300;}
	.st2{opacity:0.5;}
	.st3{clip-path:url(#SVGID_00000106861598475246499300000004713636257750400184_);fill:#FEE300;}
	.st4{clip-path:url(#SVGID_00000002370878332902090350000015299670483557990055_);fill:#FEE300;}
  </style>
  <g>
    <path class="st0" d="M31.4,32.5c0.4,0.2,1.3,0.3,3,0.5c0.6,0.1,0.9,0.1,1.3,0.3c0.5,0.3,0.5,0.5,0.9,0.8c0.5,0.4,0.8,0.3,1.7,0.5
		c0.9,0.3,0.8,0.4,2.1,1c1.1,0.5,1.4,0.4,1.7,0.8c0.4,0.5,3,8,2.9,8.3c-0.4,2.1-7.1,3.2-21,3.7c-0.3,0-18.6-5.4-19.2-7.1
		c0-0.1-0.2-0.5,0-0.8C5,40.3,7.2,35.9,8.6,36c0.7,0,1.7-0.2,2.6-0.5c1.1-0.4,1.3-0.3,1.7-0.5c0.4-0.3,1.1-0.3,1.3-0.4
		c1.5-0.7,2.8-0.6,3.3-0.6c4.4,0.5,10.9-4.5,13-2.4C30.8,31.9,30.9,32.2,31.4,32.5"/>
    <path class="st1" d="M31.3,22.3c1.1,1.6,1.2,2.7,1.1,3.5c-0.1,0.5-0.3,0.9-0.4,1.9c-0.1,0.6,0,0.4-0.1,1.7c-0.1,0.6-0.1,1.2,0,1.9
		c0.1,0.4,0.2,0.7,0.4,0.8c0.2,0.2,0.4,0.1,0.8,0.2c0.5,0.2,0.7,0.6,0.8,0.8c0.2,0.4,0.2,0.8,0.2,1c0,0.4-0.1,0.8-0.5,1.5
		c-0.4,0.7-0.7,1.3-1.3,2c0,0-0.8,0.9-1.8,1.5c-3.4,2.2-12.9-0.8-12.9-2.4c0-0.1,0.1-0.7,0.1-1.1c0,0,0.1-0.6,0.2-1.2
		c0.3-2,2.5-4.7,2.5-4.7c1.5-1.8,3.2-4,5.3-6.4"/>
    <path class="st1" d="M32,4.6c-3-1.2-7.2-0.6-8.7-0.4c-2.5,0.4-3.8,0.6-4.8,1.6c-0.4,0.5-1.1,1.3-1.7,2.1c-0.7,0.9-1,1.4-1.2,1.8
		c-0.5,0.9-1.1,2.2-1,3.4c0,0.3,0.1,0.7,0,1.2c-0.1,0.3-0.2,0.3-0.5,0.9c-0.3,0.5-0.3,0.7-0.3,0.8c0,0.3,0.1,0.3,0.2,0.7
		c0.2,0.7,0.2,1.3,0.2,1.7c0,0.1,0,0.3-0.1,0.9c-0.2,1.1-0.4,1.5-0.7,2.3c-0.1,0.4-0.3,1.1-0.4,1.9c-0.1,1.1,0.1,2,0.3,2.8
		c0.2,1.1,0.6,2,0.7,2.3c0.2,0.6,0.4,0.8,0.6,1.5c0.3,0.8,0.2,0.9,0.4,1.6c0.2,0.6,0.4,1.3,0.9,1.9c0.5,0.6,1.2,0.8,2,1.2
		c0.5,0.2,1.3,0.5,2.2,0.5c0.5,0,1.2-0.1,2.5-0.6c0.9-0.3,2.4-1,4.2-2.3c0.9-0.7,2.2-1.6,2.8-3c0.1-0.1,0.2-0.3,0.4-0.8
		c0.5-1,0.9-1.8,1.1-2.1c0.7-1.3,0.6-1.3,1.4-2.8c0.8-1.4,1-1.8,2.1-3.9c0.5-1,0.7-1.4,0.9-2c0.1-0.3,0.3-0.9,0.4-2.6
		c0.1-1,0.2-1.9,0.1-3.2c-0.1-1.9-0.1-2.8-0.7-3.9c-0.7-1.5-1.9-2.3-2.1-2.5C33,5.1,32.6,4.8,32,4.6"/>
    <path class="st0" d="M31.4,23.4c-0.2-0.3-0.7-0.4-0.9-0.2c-0.3,0.2-0.2,0.6-0.5,1.6c0,0.2-0.3,1.1-0.9,2c-0.3,0.4-0.5,0.8-0.9,1
		c-0.4,0.2-0.6,0.2-1.7,0.5c-1.2,0.3-1.8,0.4-2.1,0.6c-0.6,0.4-0.4,0.4-1,0.7c-0.5,0.2-0.8,0.4-0.9,0.6c-0.1,0.2-0.1,0.3-0.1,0.5
		c0.1,0.5-0.4,0.9-0.6,1.1c-0.3,0.3-1.1,1-2,0.8c-0.5-0.2-0.9-0.6-1-1.1c-0.1-0.7,0.5-1.7,0.2-2.4c-0.1-0.3-0.5-0.6-0.9-0.7
		c-0.4-0.1-0.9-0.3-1.1-0.1c-0.2,0.2,0.1,0.3-0.2,1.5c-0.2,0.6-0.1,0.9-0.3,1.1c-0.2,0.1-0.6,0.1-0.8-0.1c-0.3-0.3-0.1-0.6-0.2-1.5
		c-0.1-0.5-0.1-0.9-0.4-1.2c-0.3-0.4-0.4-0.3-0.7-0.8c-0.2-0.4-0.1-0.5-0.4-1.2c-0.3-0.7-0.4-0.7-0.4-0.7c-0.1,0-0.2,0.3-0.2,0.3
		c-0.1,0.4,0.1,0.7,0.2,1c0,0,0.1,0.5,0.3,1.1c0.2,0.7,0.2,0.7,0.5,1.6c0.2,0.6,0.2,0.7,0.3,1.1c0.1,0.5,0,0.6,0,1.1
		c0.1,0.8,0.4,1.3,0.5,1.5c0.4,0.6,0.8,0.9,1.1,1.1c0.6,0.5,1.2,0.7,1.8,0.8c0.4,0.1,1.2,0.4,2.3,0.4c0.9,0,1.5-0.2,2.5-0.5
		c1.2-0.4,2-0.6,2.9-1.2c0.9-0.6,0.5-0.6,2.3-2c0.8-0.7,1.2-0.9,1.6-1.5c0.5-0.7,0.7-1.3,0.9-1.6c0.5-1.4,0.1-1.7,0.6-3.2
		C31.3,24.3,31.7,23.8,31.4,23.4"/>
    <path class="st0" d="M32.5,14.2c1.7,0.6,2.3,1.3,2.6,1.9c0.1,0.3,0.3,0.6,0.4,0.9c0.4,0.8,0.5,1.1,0.8,1.3c0.4,0.3,0.9,0.4,1,0.3
		c0.1-0.2-0.7-0.5-0.9-1.3c-0.1-0.3,0-0.6,0-0.9c0-0.2,0.2-0.8,0.4-0.9c0.2,0,0.5,0.5,0.6,0.8c0.4,0.9,0.3,1.6,0.4,1.6
		c0.1,0,0.5-1.2,0-2.4c-0.2-0.6-0.5-0.8-0.4-1.2c0.2-0.6,1-0.8,1-0.9c-0.1-0.2-0.9,0.2-1.3-0.2c-0.3-0.3-0.2-0.7-0.2-0.9
		c0-0.1,0.1-0.8,0.6-1.1c0.3-0.2,0.5,0,1-0.2c0.2-0.1,0.7-0.2,0.9-0.6c0.3-0.7-0.7-2-1.1-2.5c-0.5-0.6-0.9-0.9-0.8-1.3
		c0.1-0.2,0.3-0.3,0.5-0.8C38,5.5,38,5.4,38,5.3c0-0.2,0-0.2-0.1-0.6c0-0.1,0-0.3,0-0.3c0,0,0.1,0.5-0.1,0.9c0,0-0.2,0.4-0.4,0.4
		c-0.1,0-0.2-0.2-0.3-0.4c-0.3-0.8,0-1.2-0.1-1.8c-0.1-0.9-1-1.5-1.1-1.5C35.2,1.6,35,2,34,1.5c-0.3-0.1-0.6-0.3-1.1-0.4
		c-0.3,0-0.6-0.1-0.8,0.1c-0.2,0.2-0.3,0.5-0.4,0.5c0,0-0.1,0-0.1-0.1c-0.1-0.3,0-0.6-0.1-0.7c-0.1,0-0.2,0.7-0.6,0.8
		c0,0-0.2,0-0.6-0.2C29.8,1.2,29.8,1,29.5,1c-0.4-0.1-0.5,0.3-1.2,0.5c-0.1,0-0.6,0.1-1.6,0.1c-0.5,0-0.6,0-0.8,0.1
		C25.4,1.8,25.3,2,25.1,2c-0.3,0-0.4-0.3-0.7-0.4c-0.2,0-0.3,0-1.1,0.6c-0.7,0.5-0.7,0.6-1,0.8c-0.5,0.3-0.6,0.2-1.1,0.4
		c-0.4,0.2-0.4,0.4-0.9,0.8c-0.6,0.6-0.6,0.5-1.3,1.1c-0.6,0.5-1,1-1.2,1.4c-0.5,0.7-0.5,1-0.5,1.1c0.1,0.5,0.5,0.8,0.8,1
		c0.7,0.4,1.4,0.5,1.6,0.6c3.2,0.4,2.5,0.5,3.6,0.5c1.9,0,3.6-0.2,3.8-0.2c1.4-0.2,2.1-0.5,3.2-0.2c0.4,0.1,1.1,0.3,1.4,0.9
		c0.2,0.4,0.2,0.8,0.3,1.8c0,0.4,0,0.7,0,1"/>
    <path class="st0" d="M20.6,16.2c0.2,0,0.5,0,0.8,0.1c0.8,0.1,1,0.2,1.6,0.3c0.4,0,0.3,0,1.3,0c1,0,1.1,0.1,1.2,0.1
		c0.4,0.1,0.8,0.5,1.2,0.8c0.5,0.4,0.6,0.6,0.8,0.7c0.2,0.1,0.3,0.3,0.3,0.4c0.1,0.1-0.3,0.3-0.5,0.2c-0.5,0-0.4-0.1-0.6-0.1
		c-0.5-0.2-0.5-0.3-0.9-0.5c-0.2-0.1-0.5-0.1-1.2-0.2c-0.9-0.1-1.1-0.1-1.2,0c-0.4,0-0.4,0.1-0.8,0.2c-0.6,0.1-1.1,0.1-1.6,0
		c-0.6-0.1-0.8-0.1-0.9-0.2c-0.2-0.2-0.3-0.6-0.3-0.7c0-0.3,0.1-0.5,0.1-0.6"/>
    <path class="st0" d="M17.3,16.7c0-0.1,0.1-0.4,0-0.6c0-0.1-0.1-0.3-0.6-0.5c-0.2-0.1-0.4-0.3-0.8-0.4c-0.7-0.3-0.7-0.2-1.1-0.4
		c-0.2-0.1-0.3-0.2-0.5-0.2c-0.2,0-0.2,0.2-0.3,0.4c-0.1,0.2-0.1,0.4-0.2,0.7c0,0.2,0,0.4,0,0.4c0.1,0.1,0.3,0,0.8,0
		c0.4,0,0.6,0.1,0.9,0.1c0.3,0.1,0.4,0.1,0.6,0.2c0.2,0.1,0.2,0.2,0.5,0.4c0.1,0.1,0.3,0.2,0.6,0.4"/>
    <path class="st0" d="M18.3,25.4c0.2,0,0.4-0.1,0.9,0.1c0.4,0.2,0.7,0.4,0.9,0.5c0.6,0.3,0.9,0.4,1.1,0.4c0.7,0.2,0.7,0.1,1.3,0.4
		c0.2,0.1,0.6,0.2,1.1,0.6c0.2,0.1,0.3,0.6,0.1,0.9c-0.2,0.3-0.8,0.3-0.9,0.3c-0.4,0-0.5-0.3-1.1-0.5c-0.2-0.1-0.5-0.1-1-0.2
		c-1.2-0.2-1.2-0.1-1.6-0.3c-0.3-0.1-0.5-0.2-0.9-0.4C18,27,17.9,27,17.7,26.9c-0.3-0.1-0.3-0.2-0.7-0.3c-0.4-0.2-0.4-0.1-0.7-0.3
		c-0.2-0.1-0.3-0.2-0.5-0.3c-0.1,0-0.3-0.1-0.5-0.2c-0.4-0.1-0.6,0.3-0.7,0.2c-0.2-0.2-0.2-0.8-0.2-0.8c0,0,0-0.3,0.2-0.5
		c0.1,0,0.2-0.1,0.7-0.1c0.2,0,0.5,0.1,0.9,0.2c0.4,0.1,0.4,0.2,0.8,0.3c0.5,0.2,0.4,0.2,0.5,0.1C17.7,25.4,18.1,25.4,18.3,25.4"/>
    <path class="st1" d="M32,21.2c0.2-0.7,0.7-1,0.8-1.1c0.5-0.4,0.7-0.1,1.8-0.6c0.6-0.2,0.8-0.4,1.2-0.3c0.1,0,0.5,0.1,0.7,0.5
		c0.2,0.3,0.1,0.5,0,1c0,0.1-0.1,0.4-0.2,0.7c-0.1,0.2-0.1,0.3-0.5,1c-0.4,0.8-0.5,0.8-0.6,1c-0.2,0.3-0.3,0.5-0.6,0.8
		c-0.3,0.4-0.6,0.6-0.7,0.7c-0.3,0.3-0.4,0.3-0.6,0.5c-0.2,0.3-0.3,0.6-0.3,0.6c-0.1,0.3,0,0.4-0.1,0.7c0,0.1-0.1,0.3-0.3,0.4
		c-0.2,0.1-0.4,0.1-0.5,0.2c-0.3,0-0.6-0.1-0.7-0.2c-0.2-0.1-0.3-0.2-0.4-0.4c-0.2-0.2-0.3-0.3-0.3-0.5c0-0.2-0.1-0.3,0.3-1.1
		c0.2-0.5,0.2-0.5,0.4-0.8c0-0.1,0.2-0.5,0.3-1C32.2,22.1,31.8,21.9,32,21.2"/>
    <g class="st2">
      <g>
        <defs>
          <rect id="SVGID_1_" x="32" y="21.3" width="2.4" height="3.3"/>
        </defs>
        <use xlink:href="#SVGID_1_" style="overflow:visible;fill:#FEE300;"/>
        <clipPath id="SVGID_00000021823699223475165390000009031073554292049820_">
          <use xlink:href="#SVGID_1_" style="overflow:visible;"/>
        </clipPath>
        <path style="clip-path:url(#SVGID_00000021823699223475165390000009031073554292049820_);fill:#FEE300;" d="M33.7,21.3
				c-0.1,0.2-0.2,0.3-0.3,0.4c-0.2,0.1-0.4,0-0.5,0.1c0,0,0,0.1,0,0.1c0,0.2,0.1,0.3,0.2,0.5c0,0.1,0.1,0.3-0.1,0.5
				c-0.1,0.1-0.1,0.1-0.2,0.2c0,0.1-0.1,0.1-0.1,0.2c0,0,0,0-0.1,0.1c-0.1,0.2-0.3,0.1-0.4,0.3C32,23.9,32,24.1,32,24.1
				c0,0.1,0,0.2,0,0.3c0.1,0.2,0.4,0.2,0.5,0.1c0.1-0.1,0-0.2,0.1-0.3c0.1-0.1,0.3,0,0.5-0.1c0.2,0,0.3-0.1,0.3-0.2
				c0-0.1-0.4,0-0.5,0c-0.2,0-0.4,0.1-0.5,0c0,0-0.1-0.1-0.1,0c-0.1,0,0,0.1-0.1,0.3c0,0-0.1,0.1-0.1,0.1c-0.1,0-0.1-0.2-0.1-0.3
				c0-0.1,0.1-0.2,0.2-0.2c0.4-0.3,0.3-0.7,0.8-1.3c0.1-0.1,0.2-0.3,0.2-0.4c0-0.1-0.2,0-0.2-0.1c0-0.1,0-0.1,0-0.2
				c0.1-0.1,0.3-0.2,0.4-0.1c0.1,0.1,0.1,0.1,0.2,0.2c0.1,0.1,0,0.2,0.1,0.4c0,0.2,0.1,0.3,0.1,0.3c0,0-0.2-0.5,0-0.6
				c0.1-0.1,0.1,0,0.3-0.1c0.1-0.1,0.2-0.2,0.2-0.2c0,0,0,0-0.1,0c-0.2,0-0.2,0-0.3-0.1c0,0-0.1,0-0.1-0.1"/>
      </g>
    </g>
    <g class="st2">
      <g>
        <defs>
          <rect id="SVGID_00000008830054984039925960000006140983756467925143_" x="34.8" y="19.9" width="1.7" height="3.9"/>
        </defs>
        <clipPath id="SVGID_00000075861493428102638790000011726246610153920940_">
          <use xlink:href="#SVGID_00000008830054984039925960000006140983756467925143_" style="overflow:visible;"/>
        </clipPath>
        <path style="clip-path:url(#SVGID_00000075861493428102638790000011726246610153920940_);fill:#FEE300;" d="M35.6,20.1
				c0.1-0.1,0.3-0.2,0.5-0.2c0.1,0,0.2,0,0.3,0c0.1,0.1,0.1,0.2,0.1,0.5c-0.1,0.5-0.3,0.8-0.4,1.2c-0.4,0.8-0.4,1-0.8,1.6
				c-0.2,0.3-0.4,0.6-0.5,0.6c0,0,0.2-0.3,0.4-0.9c0.3-0.8,0.4-1,0.4-1.2c0-0.3,0-0.6,0-0.6c0-0.2-0.1-0.3,0-0.6c0-0.1,0-0.1,0-0.2
				C35.6,20.2,35.5,20.2,35.6,20.1"/>
      </g>
    </g>
  </g>
</svg>
