<?xml version="1.0" encoding="utf-8"?>
<svg version="1.1" id="Calque_1"
  xmlns="http://www.w3.org/2000/svg"
  xmlns:xlink="http://www.w3.org/1999/xlink" x="0px" y="0px" viewBox="0 0 50 50" style="enable-background:new 0 0 50 50;" xml:space="preserve">
  <style type="text/css">
	.st0{fill:#FEE300;}
  </style>
  <path class="st0" d="M20.5,21c-1.4,0-2.5,1.3-2.5,2.8c0,1.5,1.2,2.8,2.5,2.8c1.4,0,2.5-1.3,2.5-2.8C23.1,22.2,21.9,21,20.5,21z
	 M29.6,21c-1.4,0-2.5,1.3-2.5,2.8c0,1.5,1.1,2.8,2.5,2.8c1.4,0,2.5-1.3,2.5-2.8C32.1,22.2,31,21,29.6,21z"/>
  <path class="st0" d="M41.8,0H8.2C5.4,0,3.1,2.3,3.1,5.1c0,0,0,0,0,0v33.8c0,2.9,2.3,5.2,5.1,5.2h28.4l-1.3-4.6l3.2,3l3,2.8l5.4,4.8
	V5.1C46.9,2.3,44.6,0,41.8,0C41.8,0,41.8,0,41.8,0z M32.1,32.6c0,0-0.9-1.1-1.6-2c3.3-0.9,4.5-3,4.5-3c-1,0.7-2,1.2-2.9,1.5
	c-3.2,1.3-6.7,1.7-10.1,1c-1.3-0.2-2.5-0.6-3.7-1.1c-0.6-0.2-1.2-0.5-1.8-0.8c-0.1-0.1-0.2-0.1-0.2-0.1c0,0-0.1,0-0.1-0.1
	c-0.4-0.2-0.7-0.4-0.7-0.4s1.2,2,4.4,3c-0.8,0.9-1.7,2.1-1.7,2.1c-5.5-0.2-7.6-3.8-7.6-3.8c0-8,3.6-14.6,3.6-14.6
	c3.6-2.7,7-2.6,7-2.6l0.3,0.3c-4.5,1.3-6.6,3.3-6.6,3.3s0.6-0.3,1.5-0.7c2.7-1.2,4.8-1.5,5.7-1.6c0.1,0,0.3-0.1,0.4-0.1
	c4.3-0.6,8.7,0.2,12.6,2.3c0,0-2-1.9-6.2-3.2l0.4-0.4c0,0,3.4-0.1,7,2.6c0,0,3.6,6.5,3.6,14.6C39.7,28.8,37.6,32.5,32.1,32.6z"/>
</svg>
