<?xml version="1.0" encoding="utf-8"?>
<!-- Generator: Adobe Illustrator 26.1.0, SVG Export Plug-In . SVG Version: 6.00 Build 0)  -->
<svg version="1.1" id="Calque_1" xmlns="http://www.w3.org/2000/svg" xmlns:xlink="http://www.w3.org/1999/xlink" x="0px" y="0px"
	 viewBox="0 0 50 50" style="enable-background:new 0 0 50 50;" xml:space="preserve">
<style type="text/css">
	.st0{fill:#FEE300;}
</style>
<path class="st0" d="M48.4,10.3c0-0.2-0.2-0.4-0.2-0.4c-0.2,0-0.2,0-0.4,0.2c-4,6.2-8.3,12.5-12.3,18.9H0.4c-0.4,0-0.6,0.6-0.2,0.8
	c14.5,5.4,35.7,13.7,47.3,18.3c0.4,0.2,0.8-0.2,0.8-0.4L48.4,10.3z"/>
<path class="st0" d="M2.7,5.2C3,5.1,3.3,5,3.6,5h4.1v0.9H4.9C4.7,5.9,4.5,5.9,4.5,6v1h3.2v0.9H4.5v2H2.2V5.6
	C2.2,5.4,2.4,5.3,2.7,5.2L2.7,5.2z M14.8,5.7L17,9.9h-2.5l-0.3-0.6h-2.9L11,9.9H9.7l2.2-4.2c0.1-0.2,0.3-0.4,0.6-0.5
	C12.7,5.1,13,5,13.3,5c0.3,0,0.6,0.1,0.9,0.2C14.5,5.3,14.7,5.5,14.8,5.7L14.8,5.7z M11.7,8.4h2l-1-1.9L11.7,8.4L11.7,8.4z
	 M19.9,5.7C20.6,5.2,21.4,5,22.4,5h2.7v0.9h-2.7c-0.5,0-0.8,0.2-1,0.6c-0.1,0.2-0.1,0.5-0.1,1c0,0.4,0,0.8,0.1,1
	c0.2,0.4,0.5,0.6,1,0.6h2.7v0.9h-2.7c-1,0-1.9-0.2-2.6-0.7c-0.7-0.5-1.1-1.1-1.1-1.7C18.8,6.8,19.2,6.2,19.9,5.7L19.9,5.7z
	 M28.6,5.2C28.9,5.1,29.2,5,29.5,5h4.1v0.9h-2.8c-0.2,0-0.4,0.1-0.4,0.2v1h3.2v0.9h-3.2v1C30.4,9,30.5,9,30.7,9h2.8v0.9h-4.1
	c-0.3,0-0.6,0-0.9-0.1c-0.3-0.1-0.5-0.3-0.5-0.5V5.6C28.1,5.4,28.3,5.3,28.6,5.2L28.6,5.2z M37.5,9.9l0-2.7l2.5,1v1.7L37.5,9.9
	L37.5,9.9L37.5,9.9z M42.1,5h7.1v0.9h-2c-0.2,0-0.4,0.1-0.4,0.2v3.9h-2.3V6c0-0.1-0.1-0.2-0.4-0.2h-2L42.1,5L42.1,5z"/>
<path class="st0" d="M40,3v4c0,0-0.1,0.1-0.1,0c-1.3-0.5-3.5-1.4-5-2c0,0,0-0.1,0-0.1h3.7C38.9,4.5,39.3,4,40,3C39.9,3,40,3,40,3
	C40,3,40,3,40,3L40,3z"/>
</svg>
