<?xml version="1.0" encoding="utf-8"?>
<svg version="1.1" id="Calque_1"
  xmlns="http://www.w3.org/2000/svg"
  xmlns:xlink="http://www.w3.org/1999/xlink" x="0px" y="0px" viewBox="0 0 50 50" style="enable-background:new 0 0 50 50;" xml:space="preserve">
  <style type="text/css">
	.st0{fill:#FEE300;}
  </style>
  <g id="Calque_1">
    <g>
      <path class="st0" d="M42.3,1.1H7.7C4,1.1,1.1,4,1.1,7.7v34.6c0,3.7,3,6.7,6.7,6.7h34.6c3.7,0,6.7-3,6.7-6.7V7.7
			C48.9,4,46,1.1,42.3,1.1z M15.7,41H9V18.3h6.7V41z M12.3,15.7L12.3,15.7c-2,0-3.3-1.5-3.3-3.3C9,10.5,10.4,9,12.4,9
			c2,0,3.3,1.4,3.3,3.3C15.7,14.2,14.4,15.7,12.3,15.7z M34.3,41V28.9c0-2.9-1.6-4.9-4.2-4.9c-2,0-3.1,1.3-3.6,2.6
			c-0.2,0.5-0.1,1.8-0.1,2.4v12h-6.7V18.3h6.7v3.5c1-1.5,2.5-3.5,6.3-3.5c4.8,0,8.3,3,8.3,9.7L41,41H34.3z"/>
    </g>
  </g>
</svg>
