<?xml version="1.0" encoding="utf-8"?>
<!-- Generator: Adobe Illustrator 26.1.0, SVG Export Plug-In . SVG Version: 6.00 Build 0)  -->
<svg version="1.1" id="Calque_1" xmlns="http://www.w3.org/2000/svg" xmlns:xlink="http://www.w3.org/1999/xlink" x="0px" y="0px"
	 viewBox="0 0 50 50" style="enable-background:new 0 0 50 50;" xml:space="preserve">
<style type="text/css">
	.st0{fill:#FEE300;}
</style>
<g>
	<path class="st0" d="M25,1.3c-12.3,0-22.4,9.6-23.4,21.8l12.6,5.3c1.1-0.7,2.4-1.2,3.7-1.2c0.1,0,0.2,0,0.4,0l5.6-8.2v-0.1
		c0-4.9,4-8.9,8.9-8.9s8.9,4,8.9,8.9s-4,8.9-8.9,8.9c-0.1,0-0.1,0-0.2,0l-8,5.7c0,0.1,0,0.2,0,0.3c0,3.7-3,6.7-6.6,6.7
		c-3.2,0-5.9-2.3-6.5-5.4l-9-3.8C5.2,41.4,14.2,48.7,25,48.7c13,0,23.5-10.6,23.5-23.7C48.4,11.9,37.9,1.3,25,1.3z M16.3,37.3
		l-2.9-1.2c0.5,1.1,1.4,2,2.6,2.5c2.5,1.1,5.5-0.1,6.5-2.7c0.5-1.2,0.5-2.6,0-3.9c-0.5-1.2-1.5-2.2-2.7-2.7
		c-1.2-0.5-2.5-0.5-3.7-0.1l3,1.2c1.9,0.8,2.8,3,2,4.8C20.3,37.2,18.1,38,16.3,37.3z M38.6,18.9c0-3.3-2.6-6-5.9-6
		c-3.3,0-5.9,2.7-5.9,6s2.6,6,5.9,6C36,24.8,38.6,22.2,38.6,18.9z M28.3,18.9c0-2.5,2-4.5,4.4-4.5c2.4,0,4.4,2,4.4,4.5
		s-2,4.5-4.4,4.5C30.3,23.4,28.3,21.4,28.3,18.9z"/>
</g>
</svg>
