<?xml version="1.0" encoding="utf-8"?>
<svg version="1.1" id="Calque_1"
  xmlns="http://www.w3.org/2000/svg"
  xmlns:xlink="http://www.w3.org/1999/xlink" x="0px" y="0px" viewBox="0 0 50 50" style="enable-background:new 0 0 50 50;" xml:space="preserve">
  <style type="text/css">
	.st0{fill:#FEE300;}
  </style>
  <path class="st0" d="M35,0.7c13.2,0,14.3,1,14.3,14.3v19.9c0,13.2-1,14.3-14.3,14.3H15c-13.2,0-14.3-1-14.3-14.3V14.9
	C0.8,1.7,1.8,0.7,15,0.7H35z M38,22.1V17c0,0-2.7,0-5-2.1c-1.9-1.7-2.1-5-2.1-5h-5.1c0,0,0,17.3,0,20.1c0,2.8-2.4,4.2-4.1,4.2
	c-1.3,0-4.3-1-4.3-4.2c0-3.4,3.4-4.2,4.3-4.2S23,26,23,26v-5.4c0,0-0.8-0.1-1.4-0.1c-5.1-0.2-9.4,4.4-9.4,9.5c0,4.3,3.3,9.5,9.5,9.5
	c6.5,0,9.5-5.4,9.5-9.4c0-2.9,0-10,0-10s1.9,1,3.4,1.5C36.1,22.1,38,22.1,38,22.1z"/>
</svg>
