<?xml version="1.0" encoding="utf-8"?>
<svg version="1.1" id="Calque_1"
  xmlns="http://www.w3.org/2000/svg"
  xmlns:xlink="http://www.w3.org/1999/xlink" x="0px" y="0px" viewBox="0 0 50 50" style="enable-background:new 0 0 50 50;" xml:space="preserve">
  <style type="text/css">
	.st0{fill:#FEE300;}
  </style>
  <path class="st0" d="M49.5,5.4c-2.5,1.4-5.2,2.4-8,3.1h-0.2C37,4.3,30,4.3,25.7,8.7c-2,2.1-3.2,4.9-3.2,7.8c0,0.3,0,0.9,0,1.2
	c-8.2,0-14.5-4.3-19-9.8c-0.5,1.6-0.7,3.3-0.7,5c0,3.4,2.7,6.8,6.9,8.9C8.9,21.9,8.1,22,7.2,22c-1.6,0-3.1-0.5-4.3-1.5v0.1
	c0,4.8,5.1,8.1,9.6,9c-1.2,0.4-2.4,0.7-3.6,0.6c-0.6,0-2.9-0.3-3.5-0.4c1.3,3.9,5.8,6.2,10.2,6.2c-3.4,2.7-5.8,3.6-12.7,3.6H0.4
	c4.6,3.1,10,4.8,15.6,4.9c18.2,0,28.6-13.9,28.6-27c0-0.2,0-0.7,0-1.1c0,0,0,0,0-0.1c0-0.1,0-0.1,0-0.2s0-0.6,0-0.8
	c1.9-1.4,3.6-3.1,4.9-5.1c-1.8,0.8-3.7,1.4-5.7,1.6C46.4,10.3,48.3,8.1,49.5,5.4z"/>
</svg>
