<svg id="Calque_1" data-name="Calque 1"
  xmlns="http://www.w3.org/2000/svg" viewBox="0 0 27.11 21.69">
  <defs>
    <style>.cls-1{fill:#fee300;}</style>
  </defs>
  <path class="cls-1" d="M27.11,0a18,18,0,0,1-4.42,1.73l-.11,0A6.1,6.1,0,0,0,12.2,6.1c0,.18,0,.5,0,.68-4.55,0-8-2.38-10.49-5.42a8.45,8.45,0,0,0-.38,2.75C1.33,6,2.81,7.87,5.12,9a5.48,5.48,0,0,1-1.38.19,3.62,3.62,0,0,1-2.38-.84v.07c0,2.66,2.81,4.46,5.32,5a4.89,4.89,0,0,1-2,.33c-.35,0-1.6-.17-1.93-.23.7,2.18,3.21,3.4,5.61,3.44-1.88,1.47-3.18,2-7,2H0a16.45,16.45,0,0,0,8.6,2.71c10.08,0,15.8-7.68,15.8-14.91,0-.12,0-.36,0-.61,0,0,0,0,0-.07s0-.07,0-.11,0-.35,0-.44a11.17,11.17,0,0,0,2.73-2.84A10.75,10.75,0,0,1,24,3.57,8.16,8.16,0,0,0,27.11,0Z"/>
</svg>